<?xml version="1.0" encoding="UTF-8"?>
<svg version="1.1" xmlns="http://www.w3.org/2000/svg" width="512" height="512">
<path d="M0 0 C0.75638711 -0.00350607 1.51277423 -0.00701215 2.29208216 -0.01062447 C4.83515579 -0.01995323 7.37800116 -0.01501137 9.9210844 -0.01015663 C11.759361 -0.01389215 13.59763601 -0.01849327 15.4359085 -0.02388728 C20.49428691 -0.03614488 25.55259933 -0.03585356 30.61098921 -0.03349853 C36.0637401 -0.03309106 41.51646964 -0.04412281 46.96921062 -0.05361366 C57.6547246 -0.0702397 68.34021651 -0.07572393 79.02574233 -0.07683842 C87.70976914 -0.07778812 96.39378865 -0.08189452 105.07781315 -0.08823967 C129.68828817 -0.10585635 154.29874675 -0.11509 178.909228 -0.11357872 C179.90431272 -0.11351889 179.90431272 -0.11351889 180.91950017 -0.11345784 C182.26103627 -0.11337697 183.60257238 -0.11329337 184.94410849 -0.11320706 C205.8164818 -0.11198153 226.68879012 -0.12699458 247.56114483 -0.15435219 C271.00866959 -0.1850724 294.45615872 -0.20225938 317.90370578 -0.20042574 C330.31962197 -0.19976121 342.7354649 -0.20528116 355.15136433 -0.22678185 C365.72195607 -0.24496941 376.29244132 -0.24936091 386.86304191 -0.235763 C392.25742712 -0.22922116 397.65160787 -0.22916007 403.04597378 -0.2464695 C407.98386355 -0.26215139 412.92138593 -0.25938656 417.85926648 -0.24190123 C419.6459248 -0.23882056 421.43261021 -0.24250372 423.21923659 -0.25362138 C441.17507946 -0.35795818 441.17507946 -0.35795818 448.68394756 6.22211266 C449.22277569 6.87308922 449.76160381 7.52406578 450.31676006 8.19476891 C450.87105694 8.84316734 451.42535381 9.49156578 451.99644756 10.15961266 C454.82441539 14.26398758 455.69176758 17.86969697 455.69902897 22.8164854 C455.70547786 23.92922685 455.71192675 25.04196829 455.71857107 26.18842918 C455.71392526 28.01437977 455.71392526 28.01437977 455.7091856 29.87721825 C455.71371671 31.17441549 455.71824783 32.47161274 455.72291625 33.808119 C455.73515204 37.40710341 455.73488511 41.0059949 455.73252749 44.60499537 C455.73211947 48.48718361 455.74315708 52.369342 455.75264263 56.25151634 C455.76925683 63.8569078 455.77475237 71.46226826 455.77586739 79.06767634 C455.77681767 85.24979709 455.78092699 91.43190761 455.78726864 97.61402512 C455.80488228 115.14129829 455.81410733 132.66854698 455.81260769 150.19582907 C455.81252778 151.14076486 455.81244787 152.08570065 455.81236553 153.05927086 C455.81228377 154.00536037 455.81220201 154.95144987 455.81211777 155.92620876 C455.81130486 171.25912933 455.83044347 186.59195167 455.85864227 201.92484383 C455.88736781 217.66838052 455.90118274 233.41186931 455.89945471 249.15543288 C455.89879069 257.99431454 455.90428826 266.83309323 455.92581081 275.67195129 C455.94401829 283.19761908 455.94837355 290.72313721 455.93479197 298.24881748 C455.92826005 302.08782825 455.92815291 305.92655187 455.94549847 309.76553535 C455.96411811 313.92936396 455.95168061 318.0925272 455.93623638 322.25636864 C455.94652351 323.46697686 455.95681063 324.67758509 455.96740949 325.92487842 C455.9021117 333.88026493 454.8674689 339.34801071 449.47691631 345.49945641 C448.82593975 346.03828453 448.17496319 346.57711266 447.50426006 347.13226891 C446.85586163 347.68656578 446.20746319 348.24086266 445.53941631 348.81195641 C440.9557405 351.97016879 437.05340587 352.50611493 431.53848553 352.49777794 C430.5152728 352.50034121 430.5152728 352.50034121 429.47138911 352.50295627 C427.19276877 352.50624237 424.91444494 352.4952622 422.63585186 352.48431969 C420.99966724 352.48375538 419.36348211 352.48407251 417.72729778 352.4852047 C413.28967444 352.48577846 408.85215925 352.47402033 404.41456103 352.46005678 C399.77542434 352.44755335 395.13628516 352.44637923 390.49713421 352.44400597 C381.71411693 352.43779006 372.93114944 352.42137774 364.14815408 352.40130699 C354.14823538 352.37895143 344.14831429 352.36795542 334.14837682 352.35791612 C313.57947678 352.33701162 293.01062156 352.30183348 272.44176006 352.25726891 C272.72990582 353.40096947 273.01805157 354.54467003 273.31492901 355.72302818 C276.02762135 366.49276899 278.73536336 377.26374376 281.43824291 388.03595161 C282.82803296 393.57422273 284.21957352 399.11204176 285.61509991 404.64887047 C286.96137387 409.99055787 288.30306867 415.33337615 289.64157391 420.6770153 C290.15347082 422.71720279 290.66702641 424.75697483 291.18225384 426.79632378 C291.90268682 429.6490909 292.61724943 432.50326786 293.33043194 435.35785484 C293.54549892 436.20374168 293.76056591 437.04962852 293.98215008 437.9211483 C294.27243839 439.09054955 294.27243839 439.09054955 294.56859112 440.28357506 C294.82300598 441.29570375 294.82300598 441.29570375 295.08256054 442.3282795 C295.44176006 444.25726891 295.44176006 444.25726891 295.44176006 448.25726891 C296.56147198 448.23632164 297.68118389 448.21537437 298.83482647 448.19379234 C303.00559383 448.12116465 307.17630575 448.0753868 311.34752178 448.03754234 C313.14970087 448.01747858 314.95181527 447.99022078 316.75377178 447.95551109 C319.35045142 447.90676062 321.94626735 447.88424809 324.54332256 447.86664391 C325.34355846 447.84599876 326.14379436 447.82535362 326.96827984 447.80408287 C332.28092153 447.80197186 335.20598632 448.77386559 339.44176006 452.25726891 C343.0700967 456.07657063 343.75176464 459.14005897 343.94176006 464.25726891 C343.75176464 469.37447884 343.0700967 472.43796719 339.44176006 476.25726891 C334.23323438 480.60368506 330.28665455 480.82974005 323.80113506 480.76520348 C322.3542178 480.77456342 322.3542178 480.77456342 320.87806988 480.78411245 C317.64905057 480.80005447 314.42078485 480.7874331 311.19176006 480.77484703 C308.8755121 480.78026759 306.55926758 480.78738987 304.24302959 480.79608727 C297.95384051 480.8143312 291.66491373 480.80724847 285.37572002 480.79457092 C278.79616364 480.78444891 272.21662982 480.79383439 265.63707256 480.80011559 C253.87965303 480.80866039 242.12234391 480.79542439 230.3649435 480.77507824 C219.70819821 480.75720759 209.05162721 480.76031181 198.39488506 480.77875328 C186.01457382 480.8001674 173.63437369 480.80812315 161.25404644 480.79630423 C154.70231726 480.79006579 148.15070811 480.78924344 141.59898663 480.80245018 C135.43966493 480.81399851 129.28067262 480.80600106 123.12138653 480.78287315 C120.85987679 480.7775807 118.59833938 480.77910896 116.33684063 480.78792381 C113.25164692 480.79884122 110.16751122 480.78516081 107.08238506 480.76520348 C105.73734402 480.77858781 105.73734402 480.77858781 104.36513042 480.79224253 C98.89414184 480.72351323 95.78974986 479.88558415 91.44176006 476.25726891 C87.81342343 472.43796719 87.13175548 469.37447884 86.94176006 464.25726891 C87.13175548 459.14005897 87.81342343 456.07657063 91.44176006 452.25726891 C96.49818908 448.0989775 100.07917025 447.70511679 106.34019756 447.86664391 C107.17515759 447.8723037 108.01011761 447.87796349 108.87037945 447.88379478 C111.51977272 447.90606667 114.16778022 447.95624367 116.81676006 448.00726891 C118.62012585 448.02734588 120.42351299 448.04559455 122.22691631 448.06195641 C126.63239275 448.10590105 131.036842 448.1748629 135.44176006 448.25726891 C135.56276577 447.12261192 135.68377148 445.98795494 135.80844402 444.81891441 C136.38849995 440.20351515 137.42858277 435.77432085 138.5748167 431.27094078 C138.78954128 430.41145836 139.00426586 429.55197594 139.22549725 428.66644859 C139.92984296 425.85183193 140.64082316 423.03893771 141.35191631 420.22601891 C141.84414432 418.26457435 142.33595433 416.30302486 142.82736492 414.34137535 C144.11700578 409.19802778 145.41229496 404.0561192 146.70878887 398.91449547 C148.03271675 393.65982338 149.35126562 388.40380217 150.67027569 383.14789391 C153.25552511 372.84969579 155.84674715 362.55301073 158.44176006 352.25726891 C157.59361485 352.26095608 156.74546963 352.26464325 155.87162304 352.26844215 C135.22282773 352.35682618 114.57406509 352.42299461 93.92512035 352.46451759 C83.93938683 352.48513216 73.95377967 352.51323166 63.96812725 352.55902672 C55.26339682 352.59892829 46.55875792 352.62470976 37.85393858 352.63362288 C33.24588501 352.638832 28.63809327 352.65105231 24.03012371 352.68018913 C19.689739 352.70741071 15.3497231 352.71570032 11.00926113 352.70969963 C9.41939443 352.71079686 7.82951494 352.71871065 6.23972225 352.73409081 C-3.15408736 352.82048461 -10.41328347 352.76582832 -17.80042744 346.29242516 C-18.33925556 345.64144859 -18.87808369 344.99047203 -19.43323994 344.31976891 C-19.98753681 343.67137047 -20.54183369 343.02297203 -21.11292744 342.35492516 C-23.94089526 338.25055023 -24.80824746 334.64484084 -24.81550884 329.69805241 C-24.82195773 328.58531096 -24.82840663 327.47256952 -24.83505094 326.32610863 C-24.83195374 325.10880824 -24.82885653 323.89150785 -24.82566547 322.63731956 C-24.83019659 321.34012232 -24.8347277 320.04292507 -24.83939612 318.70641881 C-24.85163191 315.1074344 -24.85136498 311.50854291 -24.84900737 307.90954244 C-24.84859935 304.0273542 -24.85963695 300.14519581 -24.86912251 296.26302147 C-24.8857367 288.65763001 -24.89123224 281.05226955 -24.89234726 273.44686147 C-24.89329755 267.26474072 -24.89740687 261.08263021 -24.90374851 254.9005127 C-24.92136215 237.37323952 -24.9305872 219.84599083 -24.92908756 202.31870874 C-24.92900765 201.37377295 -24.92892774 200.42883716 -24.92884541 199.45526695 C-24.92876364 198.50917745 -24.92868188 197.56308794 -24.92859764 196.58832905 C-24.92778473 181.25540848 -24.94692335 165.92258614 -24.97512214 150.58969399 C-25.00384769 134.84615729 -25.01766261 119.1026685 -25.01593459 103.35910493 C-25.01527057 94.52022327 -25.02076813 85.68144458 -25.04229069 76.84258652 C-25.06049817 69.31691873 -25.06485342 61.7914006 -25.05127184 54.26572033 C-25.04473992 50.42670956 -25.04463278 46.58798594 -25.06197834 42.74900246 C-25.08059798 38.58517385 -25.06816048 34.42201061 -25.05271626 30.25816917 C-25.06300338 29.04756095 -25.07329051 27.83695272 -25.08388937 26.58965939 C-25.01859158 18.63427288 -23.98394878 13.16652711 -18.59339619 7.01508141 C-17.94241962 6.47625328 -17.29144306 5.93742516 -16.62073994 5.38226891 C-15.9723415 4.82797203 -15.32394306 4.27367516 -14.65589619 3.70258141 C-9.93276091 0.44827963 -5.61890187 -0.03299062 0 0 Z " fill="#F1F1F1" transform="translate(40.55823993682861,15.742731094360352)"/>
<path d="M0 0 C158.4 0 316.8 0 480 0 C480 34.43538767 480 34.43538767 474.03515625 41.2421875 C473.38417969 41.78101563 472.73320312 42.31984375 472.0625 42.875 C471.41410156 43.42929687 470.76570313 43.98359375 470.09765625 44.5546875 C465.51398044 47.71289988 461.61164581 48.24884603 456.09672546 48.24050903 C455.07351274 48.24307231 455.07351274 48.24307231 454.02962905 48.24568737 C451.75100871 48.24897346 449.47268487 48.2379933 447.1940918 48.22705078 C445.55790718 48.22648648 443.92172205 48.2268036 442.28553772 48.22793579 C437.84791438 48.22850955 433.41039918 48.21675143 428.97280097 48.20278788 C424.33366427 48.19028445 419.69452509 48.18911032 415.05537415 48.18673706 C406.27235686 48.18052116 397.48938937 48.16410883 388.70639402 48.14403808 C378.70647531 48.12168253 368.70655423 48.11068651 358.70661676 48.10064721 C338.13771672 48.07974272 317.56886149 48.04456457 297 48 C297.28814575 49.14370056 297.5762915 50.28740112 297.87316895 51.46575928 C300.58586129 62.23550009 303.29360329 73.00647485 305.99648285 83.77868271 C307.38627289 89.31695382 308.77781345 94.85477285 310.17333984 100.39160156 C311.5196138 105.73328897 312.8613086 111.07610725 314.19981384 116.4197464 C314.71171076 118.45993388 315.22526635 120.49970592 315.74049377 122.53905487 C316.46092676 125.391822 317.17548937 128.24599896 317.88867188 131.10058594 C318.10373886 131.94647278 318.31880585 132.79235962 318.54039001 133.66387939 C318.73391556 134.44348022 318.9274411 135.22308105 319.12683105 136.02630615 C319.29644096 136.70105862 319.46605087 137.37581108 319.64080048 138.07101059 C320 140 320 140 320 144 C321.11971191 143.97905273 322.23942383 143.95810547 323.39306641 143.93652344 C327.56383377 143.86389574 331.73454568 143.81811789 335.90576172 143.78027344 C337.70794081 143.76020967 339.51005521 143.73295187 341.31201172 143.69824219 C343.90869136 143.64949171 346.50450729 143.62697918 349.1015625 143.609375 C349.9017984 143.58872986 350.7020343 143.56808472 351.52651978 143.54681396 C356.83916147 143.54470295 359.76422625 144.51659669 364 148 C367.62833663 151.81930172 368.31000458 154.88279006 368.5 160 C368.31000458 165.11720994 367.62833663 168.18069828 364 172 C358.79147432 176.34641616 354.84489448 176.57247114 348.359375 176.50793457 C347.39476349 176.51417453 346.43015198 176.5204145 345.43630981 176.52684355 C342.2072905 176.54278556 338.97902478 176.5301642 335.75 176.51757812 C333.43375203 176.52299868 331.11750751 176.53012097 328.80126953 176.53881836 C322.51208045 176.55706229 316.22315367 176.54997957 309.93395996 176.53730202 C303.35440358 176.52718001 296.77486976 176.53656548 290.1953125 176.54284668 C278.43789297 176.55139149 266.68058385 176.53815549 254.92318344 176.51780933 C244.26643815 176.49993868 233.60986715 176.50304291 222.953125 176.52148438 C210.57281375 176.5428985 198.19261362 176.55085424 185.81228638 176.53903532 C179.2605572 176.53279688 172.70894805 176.53197453 166.15722656 176.54518127 C159.99790486 176.55672961 153.83891255 176.54873215 147.67962646 176.52560425 C145.41811673 176.52031179 143.15657931 176.52184005 140.89508057 176.53065491 C137.80988685 176.54157232 134.72575115 176.5278919 131.640625 176.50793457 C130.74393097 176.51685746 129.84723694 176.52578034 128.92337036 176.53497362 C123.45238178 176.46624432 120.3479898 175.62831524 116 172 C112.37166337 168.18069828 111.68999542 165.11720994 111.5 160 C111.68999542 154.88279006 112.37166337 151.81930172 116 148 C121.05642901 143.84170859 124.63741019 143.44784789 130.8984375 143.609375 C131.73339752 143.61503479 132.56835754 143.62069458 133.42861938 143.62652588 C136.07801266 143.64879777 138.72602016 143.69897477 141.375 143.75 C143.17836579 143.77007698 144.98175292 143.78832565 146.78515625 143.8046875 C151.19063269 143.84863214 155.59508194 143.91759399 160 144 C160.18150856 142.29801453 160.18150856 142.29801453 160.36668396 140.56164551 C160.94673988 135.94624624 161.98682271 131.51705194 163.13305664 127.01367188 C163.34778122 126.15418945 163.5625058 125.29470703 163.78373718 124.40917969 C164.4880829 121.59456302 165.1990631 118.78166881 165.91015625 115.96875 C166.40238426 114.00730545 166.89419427 112.04575595 167.38560486 110.08410645 C168.67524571 104.94075888 169.9705349 99.79885029 171.26702881 94.65722656 C172.59095669 89.40255448 173.90950555 84.14653326 175.22851562 78.890625 C177.81376504 68.59242689 180.40498708 58.29574183 183 48 C182.15185478 48.00368717 181.30370956 48.00737434 180.42986298 48.01117325 C159.78106767 48.09955727 139.13230502 48.1657257 118.48336029 48.20724869 C108.49762676 48.22786325 98.5120196 48.25596276 88.52636719 48.30175781 C79.82163676 48.34165938 71.11699786 48.36744085 62.41217852 48.37635398 C57.80412495 48.3815631 53.1963332 48.3937834 48.58836365 48.42292023 C44.24797894 48.4501418 39.90796304 48.45843142 35.56750107 48.45243073 C33.97763436 48.45352795 32.38775488 48.46144175 30.79796219 48.4768219 C21.40415258 48.56321571 14.14495647 48.50855942 6.7578125 42.03515625 C6.21898437 41.38417969 5.68015625 40.73320312 5.125 40.0625 C4.57070313 39.41410156 4.01640625 38.76570313 3.4453125 38.09765625 C-4.38224533 26.73711961 0 14.34915192 0 0 Z " fill="#686868" transform="translate(16,320)"/>
<path d="M0 0 C0.75638711 -0.00350607 1.51277423 -0.00701215 2.29208216 -0.01062447 C4.83515579 -0.01995323 7.37800116 -0.01501137 9.9210844 -0.01015663 C11.759361 -0.01389215 13.59763601 -0.01849327 15.4359085 -0.02388728 C20.49428691 -0.03614488 25.55259933 -0.03585356 30.61098921 -0.03349853 C36.0637401 -0.03309106 41.51646964 -0.04412281 46.96921062 -0.05361366 C57.6547246 -0.0702397 68.34021651 -0.07572393 79.02574233 -0.07683842 C87.70976914 -0.07778812 96.39378865 -0.08189452 105.07781315 -0.08823967 C129.68828817 -0.10585635 154.29874675 -0.11509 178.909228 -0.11357872 C179.90431272 -0.11351889 179.90431272 -0.11351889 180.91950017 -0.11345784 C182.26103627 -0.11337697 183.60257238 -0.11329337 184.94410849 -0.11320706 C205.8164818 -0.11198153 226.68879012 -0.12699458 247.56114483 -0.15435219 C271.00866959 -0.1850724 294.45615872 -0.20225938 317.90370578 -0.20042574 C330.31962197 -0.19976121 342.7354649 -0.20528116 355.15136433 -0.22678185 C365.72195607 -0.24496941 376.29244132 -0.24936091 386.86304191 -0.235763 C392.25742712 -0.22922116 397.65160787 -0.22916007 403.04597378 -0.2464695 C407.98386355 -0.26215139 412.92138593 -0.25938656 417.85926648 -0.24190123 C419.6459248 -0.23882056 421.43261021 -0.24250372 423.21923659 -0.25362138 C441.17507946 -0.35795818 441.17507946 -0.35795818 448.68394756 6.22211266 C449.22277569 6.87308922 449.76160381 7.52406578 450.31676006 8.19476891 C450.87105694 8.84316734 451.42535381 9.49156578 451.99644756 10.15961266 C465.26965991 29.42370734 455.44176006 56.86317756 455.44176006 80.25726891 C297.04176006 80.25726891 138.64176006 80.25726891 -24.55823994 80.25726891 C-24.55823994 13.82188123 -24.55823994 13.82188123 -18.59339619 7.01508141 C-17.94241962 6.47625328 -17.29144306 5.93742516 -16.62073994 5.38226891 C-15.9723415 4.82797203 -15.32394306 4.27367516 -14.65589619 3.70258141 C-9.93276091 0.44827963 -5.61890187 -0.03299062 0 0 Z " fill="#5ED2F1" transform="translate(40.55823993682861,15.742731094360352)"/>
<path d="M0 0 C9.60607775 5.75100707 16.49078183 14.34725599 19.25 25.25 C20.76355421 33.66748567 20.16119021 42.48171723 20 51 C21.14339844 50.98839844 22.28679687 50.97679687 23.46484375 50.96484375 C24.95572754 50.95546712 26.44661309 50.94636679 27.9375 50.9375 C28.69224609 50.92912109 29.44699219 50.92074219 30.22460938 50.91210938 C32.14994313 50.90347559 34.07535581 50.94775667 36 51 C37.99605443 52.99605443 37.7859698 56.72122668 38.16748047 59.45947266 C38.27985046 60.24197388 38.39222046 61.0244751 38.50799561 61.83068848 C38.88179801 64.44124999 39.24954031 67.05262758 39.6171875 69.6640625 C39.8772871 71.49088118 40.13771909 73.31765255 40.39846802 75.14437866 C40.94739743 78.99612277 41.49356838 82.84824437 42.03759766 86.70068359 C42.72531527 91.57041359 43.41769022 96.4394651 44.11187363 101.30827713 C48.81629806 134.30950747 48.81629806 134.30950747 50.8828125 149.9609375 C51.00244354 150.85809479 51.12207458 151.75525208 51.24533081 152.67959595 C51.69611271 156.16145968 52 159.48244575 52 163 C4.48 163 -43.04 163 -92 163 C-89.70151326 142.31361935 -89.70151326 142.31361935 -88.59545898 134.65063477 C-88.46997681 133.76525024 -88.34449463 132.87986572 -88.21520996 131.96765137 C-87.81159783 129.12516845 -87.40402865 126.28327172 -86.99609375 123.44140625 C-86.70972178 121.43410017 -86.42351589 119.4267704 -86.13746643 117.41941833 C-85.5434096 113.25518055 -84.94736822 109.09123322 -84.34985352 104.92749023 C-83.58383892 99.5883952 -82.82293937 94.24858534 -82.06347561 88.90855503 C-81.47614826 84.782844 -80.88616621 80.65751601 -80.29536629 76.53230095 C-80.01345687 74.56160154 -79.73237798 72.59078315 -79.45214653 70.61984444 C-79.06251751 67.88231627 -78.66931891 65.14532441 -78.27514648 62.40844727 C-78.16032425 61.5965947 -78.04550201 60.78474213 -77.92720032 59.94828796 C-77.47785114 56.84983011 -76.99242433 53.97727298 -76 51 C-70.72 51 -65.44 51 -60 51 C-60.05800781 49.40671875 -60.11601563 47.8134375 -60.17578125 46.171875 C-60.74443018 24.03991907 -60.74443018 24.03991907 -55 15 C-54.53078125 14.24976563 -54.0615625 13.49953125 -53.578125 12.7265625 C-41.12216256 -5.28770577 -19.37799318 -10.00494213 0 0 Z " fill="#F5B940" transform="translate(148,125)"/>
<path d="M0 0 C147.84 0 295.68 0 448 0 C448 7.92 448 15.84 448 24 C393.35673265 24.09121942 338.71347496 24.16202271 284.07014641 24.20426132 C277.62130842 24.20926424 271.17247058 24.21444152 264.72363281 24.21972656 C263.43976694 24.2207758 262.15590108 24.22182505 260.83313018 24.22290608 C240.03569564 24.24031878 219.23830526 24.27186125 198.44089693 24.30861118 C177.10622693 24.34599651 155.77158009 24.36823076 134.43687868 24.37635398 C121.26862877 24.38184674 108.10050366 24.39920502 94.93229216 24.43166587 C85.90651446 24.45278399 76.88080142 24.45920616 67.85500079 24.45400551 C62.64493852 24.45143954 57.43509457 24.45541656 52.22507095 24.4768219 C47.4553795 24.49627525 42.68605338 24.49727781 37.91634518 24.48359558 C36.1907695 24.48190434 34.46517109 24.4869888 32.73964018 24.49953273 C15.2063274 24.61958256 15.2063274 24.61958256 7.5390625 17.81640625 C6.90742187 17.07261719 6.27578125 16.32882812 5.625 15.5625 C4.97789063 14.82128906 4.33078125 14.08007812 3.6640625 13.31640625 C0.27987233 8.60554998 0 5.97470497 0 0 Z " fill="#929292" transform="translate(48,320)"/>
<path d="M0 0 C0.78423063 -0.00170885 1.56846125 -0.0034177 2.37645644 -0.00517833 C5.00055062 -0.00846887 7.62438829 0.00252326 10.24845886 0.01345825 C12.13094578 0.01402246 14.01343314 0.01370562 15.8959198 0.01257324 C21.00500344 0.0119991 26.11399329 0.02376336 31.22305512 0.03772116 C36.56287299 0.05021829 41.90269296 0.05139821 47.24252319 0.05377197 C57.35363609 0.05998973 67.46470578 0.07640457 77.57579964 0.09647095 C89.08717784 0.11882074 100.59855808 0.12982107 112.10995257 0.13986182 C135.78920194 0.16077051 159.46841294 0.19595226 183.14762878 0.24050903 C183.24683428 5.39995776 183.31925525 10.55884593 183.36735535 15.71902466 C183.38741588 17.47270383 183.41467129 19.22631656 183.4493866 20.97976685 C183.49815181 23.50695221 183.5206527 26.03324994 183.53825378 28.56082153 C183.55889893 29.33918365 183.57954407 30.11754578 183.60081482 30.91949463 C183.60295603 36.16624784 182.58509906 39.06016236 179.14762878 43.24050903 C174.05805013 47.72418547 171.06060536 48.38616024 164.42823792 48.36076355 C163.62206925 48.36161797 162.81590059 48.3624724 161.98530257 48.36335272 C159.26904404 48.36500708 156.55284652 48.35948685 153.83659363 48.35403442 C151.89543662 48.35375252 149.9542795 48.35391035 148.01312256 48.35447693 C142.73034234 48.35476477 137.44758466 48.34887025 132.1648097 48.34190297 C126.64879946 48.33566716 121.13278874 48.33506545 115.61677551 48.33387756 C105.16558516 48.33076492 94.71440523 48.32255243 84.26321948 48.31252807 C72.36739115 48.30136486 60.47156234 48.29585596 48.57573009 48.29083264 C24.09969054 48.28036977 -0.37633976 48.26277162 -24.85237122 48.24050903 C-24.9520269 43.97217922 -25.02420513 39.70448434 -25.07209778 35.43533325 C-25.09208417 33.98631986 -25.11928319 32.53738578 -25.15412903 31.08865356 C-25.37357905 21.72330119 -25.40720082 14.43826687 -18.88752747 6.99832153 C-18.2365509 6.45949341 -17.58557434 5.92066528 -16.91487122 5.36550903 C-16.26647278 4.81121216 -15.61807434 4.25691528 -14.95002747 3.68582153 C-10.13166576 0.36590751 -5.72757933 -0.0457957 0 0 Z " fill="#3279E9" transform="translate(40.85237121582031,15.759490966796875)"/>
<path d="M0 0 C0.96461151 -0.00623996 1.92922302 -0.01247993 2.92306519 -0.01890898 C6.1520845 -0.03485099 9.38035022 -0.02222963 12.609375 -0.00964355 C14.92562297 -0.01506411 17.24186749 -0.0221864 19.55810547 -0.03088379 C25.84729455 -0.04912772 32.13622133 -0.042045 38.42541504 -0.02936745 C45.00497142 -0.01924544 51.58450524 -0.02863091 58.1640625 -0.03491211 C69.92148203 -0.04345692 81.67879115 -0.03022092 93.43619156 -0.00987476 C104.09293685 0.00799589 114.74950785 0.00489166 125.40625 -0.0135498 C137.78656125 -0.03496393 150.16676138 -0.04291967 162.54708862 -0.03110075 C169.0988178 -0.02486231 175.65042695 -0.02403996 182.20214844 -0.0372467 C188.36147014 -0.04879504 194.52046245 -0.04079758 200.67974854 -0.01766968 C202.94125827 -0.01237722 205.20279569 -0.01390548 207.46429443 -0.02272034 C210.54948815 -0.03363775 213.63362385 -0.01995733 216.71875 0 C218.06379105 -0.01338433 218.06379105 -0.01338433 219.43600464 -0.02703905 C224.90699322 0.04169025 228.0113852 0.87961933 232.359375 4.50793457 C235.98771163 8.32723629 236.66937958 11.39072463 236.859375 16.50793457 C236.66937958 21.62514451 235.98771163 24.68863285 232.359375 28.50793457 C227.15084932 32.85435073 223.20426948 33.08040571 216.71875 33.01586914 C215.75413849 33.0221091 214.78952698 33.02834907 213.79568481 33.03477812 C210.5666655 33.05072013 207.33839978 33.03809877 204.109375 33.0255127 C201.79312703 33.03093325 199.47688251 33.03805554 197.16064453 33.04675293 C190.87145545 33.06499686 184.58252867 33.05791414 178.29333496 33.04523659 C171.71377858 33.03511458 165.13424476 33.04450005 158.5546875 33.05078125 C146.79726797 33.05932606 135.03995885 33.04609006 123.28255844 33.0257439 C112.62581315 33.00787325 101.96924215 33.01097748 91.3125 33.02941895 C78.93218875 33.05083307 66.55198862 33.05878881 54.17166138 33.04696989 C47.6199322 33.04073145 41.06832305 33.0399091 34.51660156 33.05311584 C28.35727986 33.06466418 22.19828755 33.05666672 16.03900146 33.03353882 C13.77749173 33.02824636 11.51595431 33.02977462 9.25445557 33.03858948 C6.16926185 33.04950689 3.08512615 33.03582647 0 33.01586914 C-1.34504105 33.02925347 -1.34504105 33.02925347 -2.71725464 33.04290819 C-8.18824322 32.97417889 -11.2926352 32.13624981 -15.640625 28.50793457 C-19.26896163 24.68863285 -19.95062958 21.62514451 -20.140625 16.50793457 C-19.95062958 11.39072463 -19.26896163 8.32723629 -15.640625 4.50793457 C-10.43209932 0.16151841 -6.48551948 -0.06453657 0 0 Z " fill="#939393" transform="translate(147.640625,463.4920654296875)"/>
<path d="M0 0 C10.56 0 21.12 0 32 0 C32 73.92 32 147.84 32 224 C21.44 224 10.88 224 0 224 C0 150.08 0 76.16 0 0 Z " fill="#E2E7F6" transform="translate(16,96)"/>
<path d="M0 0 C9.24 0 18.48 0 28 0 C27.55994865 8.1103135 26.78824724 16.03529089 25.58984375 24.0625 C25.45768463 24.94905273 25.32552551 25.83560547 25.18936157 26.74902344 C24.63694263 30.42342961 24.07746105 34.09666574 23.50854492 37.76855469 C19.50394276 58.28999946 19.50394276 58.28999946 24.30078125 77.87109375 C27.88689029 82.36403496 32.59279735 85.19759912 38 87 C40.75250978 87.12011554 43.48160667 87.18534733 46.23510742 87.20532227 C47.07435257 87.21522186 47.91359772 87.22512146 48.77827454 87.23532104 C51.55397718 87.26692396 54.32969695 87.29168874 57.10546875 87.31640625 C59.02932685 87.33697682 60.95318043 87.35797332 62.87702942 87.37937927 C67.94209136 87.43458932 73.00719402 87.48400334 78.07232666 87.53222656 C83.24031195 87.58244935 88.40823808 87.63813136 93.57617188 87.69335938 C103.71739738 87.80092791 113.85867424 87.90237582 124 88 C126 94 126 94 128 112 C80.48 112 32.96 112 -16 112 C-13.70151326 91.31361935 -13.70151326 91.31361935 -12.59545898 83.65063477 C-12.46997681 82.76525024 -12.34449463 81.87986572 -12.21520996 80.96765137 C-11.81159783 78.12516845 -11.40402865 75.28327172 -10.99609375 72.44140625 C-10.70972178 70.43410017 -10.42351589 68.4267704 -10.13746643 66.41941833 C-9.5434096 62.25518055 -8.94736822 58.09123322 -8.34985352 53.92749023 C-7.58383892 48.5883952 -6.82293937 43.24858534 -6.06347561 37.90855503 C-5.47614826 33.782844 -4.88616621 29.65751601 -4.29536629 25.53230095 C-4.01345687 23.56160154 -3.73237798 21.59078315 -3.45214653 19.61984444 C-3.06251751 16.88231627 -2.66931891 14.14532441 -2.27514648 11.40844727 C-2.16032425 10.5965947 -2.04550201 9.78474213 -1.92720032 8.94828796 C-1.47785114 5.84983011 -0.99242433 2.97727298 0 0 Z " fill="#F3A93C" transform="translate(72,176)"/>
<path d="M0 0 C8.91 0 17.82 0 27 0 C25.73633204 6.95017378 24.42333737 13.64613211 22.6171875 20.4375 C22.16741358 22.17433549 21.71821201 23.91131929 21.26953125 25.6484375 C20.57318916 28.3287902 19.87290807 31.00788309 19.16259766 33.68457031 C14.46071734 49.21969058 14.46071734 49.21969058 16.0625 64.9375 C20.0912089 69.2261256 24.09909282 71.19631686 29.90391541 71.51898193 C31.80805663 71.54809599 33.7126049 71.55571994 35.61694336 71.54589844 C36.6615976 71.55623611 37.70625183 71.56657379 38.78256226 71.57722473 C42.21848097 71.60660585 45.65380939 71.60815097 49.08984375 71.609375 C51.47881694 71.62435974 53.86777978 71.6410875 56.25672913 71.65948486 C62.53175335 71.70313714 68.80663782 71.72315299 75.08178711 71.73822021 C81.4901556 71.75779875 87.89837334 71.79976803 94.30664062 71.83984375 C106.87104263 71.91512306 119.43542146 71.96618932 132 72 C132.84109099 75.24804287 133.67150656 78.49872304 134.5 81.75 C134.73847656 82.67039062 134.97695313 83.59078125 135.22265625 84.5390625 C135.56103516 85.87324219 135.56103516 85.87324219 135.90625 87.234375 C136.22045898 88.45979004 136.22045898 88.45979004 136.54101562 89.70996094 C137 92 137 92 137 96 C84.2 96 31.4 96 -23 96 C-21.875 87 -21.875 87 -21.04454041 83.69714355 C-20.85805435 82.94570068 -20.6715683 82.19425781 -20.47943115 81.42004395 C-20.27731018 80.62594116 -20.07518921 79.83183838 -19.86694336 79.01367188 C-19.65221878 78.15418945 -19.4374942 77.29470703 -19.21626282 76.40917969 C-18.5119171 73.59456302 -17.8009369 70.78166881 -17.08984375 67.96875 C-16.59761574 66.00730545 -16.10580573 64.04575595 -15.61439514 62.08410645 C-14.32475429 56.94075888 -13.0294651 51.79885029 -11.73297119 46.65722656 C-10.40904331 41.40255448 -9.09049445 36.14653326 -7.77148438 30.890625 C-5.18623451 20.5924251 -2.59451607 10.2958693 0 0 Z " fill="#474747" transform="translate(199,368)"/>
<path d="M0 0 C21.12 0 42.24 0 64 0 C64 21.12 64 42.24 64 64 C42.88 64 21.76 64 0 64 C0 42.88 0 21.76 0 0 Z " fill="#2862BE" transform="translate(240,224)"/>
<path d="M0 0 C21.12 0 42.24 0 64 0 C64 21.12 64 42.24 64 64 C42.88 64 21.76 64 0 64 C0 42.88 0 21.76 0 0 Z " fill="#2862BE" transform="translate(240,128)"/>
<path d="M0 0 C29.19847667 -0.09125045 58.39693943 -0.16203871 87.59553019 -0.20426132 C91.04269093 -0.20926414 94.4898514 -0.21444143 97.93701172 -0.21972656 C98.62327925 -0.2207758 99.30954679 -0.22182505 100.01661031 -0.22290608 C111.12855985 -0.24031131 122.24042662 -0.27184962 133.35232706 -0.30861118 C144.75418251 -0.34601741 156.15597078 -0.36793575 167.55788934 -0.37635398 C173.96219465 -0.38157372 180.3663122 -0.39386202 186.7705574 -0.42292023 C192.79678228 -0.45004206 198.8227418 -0.45845141 204.84902191 -0.45243073 C207.06217007 -0.4535324 209.27532697 -0.46150527 211.48842239 -0.4768219 C214.5082032 -0.49669876 217.52697981 -0.49194712 220.54678345 -0.48101807 C221.42422451 -0.49266943 222.30166557 -0.5043208 223.20569575 -0.51632524 C228.62349385 -0.46326049 231.70616609 0.39111413 236 4 C239.49021841 8.22500123 240.1949987 10.61503601 240 16 C211.20071257 16.06845271 182.40143474 16.12153673 153.60208195 16.15319599 C150.2012739 16.15694806 146.80046601 16.16083103 143.3996582 16.16479492 C142.38410813 16.16597532 142.38410813 16.16597532 141.3480419 16.16717956 C130.38875016 16.18022988 119.42950567 16.20388165 108.47024196 16.23145839 C97.22319912 16.25952302 85.97617988 16.27595397 74.72910029 16.28226548 C68.41254799 16.28617855 62.09610286 16.29538395 55.77958488 16.31719017 C49.8346438 16.3375474 43.88985406 16.34383527 37.94488144 16.33932304 C35.76279821 16.34014858 33.58070994 16.34611867 31.39865685 16.35761642 C28.4187785 16.37254834 25.4394711 16.36895081 22.45957947 16.36076355 C21.59672409 16.36950207 20.73386872 16.3782406 19.84486622 16.38724393 C12.98967684 16.33635706 8.23143306 15.13441423 3.125 10.25 C0.77489709 6.65572496 0.46860298 4.20745652 0 0 Z " fill="#B4B4B4" transform="translate(144,464)"/>
<path d="M0 0 C52.8 0 105.6 0 160 0 C160 5.28 160 10.56 160 16 C107.2 16 54.4 16 0 16 C0 10.72 0 5.44 0 0 Z " fill="#474747" transform="translate(248,48)"/>
<path d="M0 0 C47.52 0 95.04 0 144 0 C144 5.28 144 10.56 144 16 C96.48 16 48.96 16 0 16 C0 10.72 0 5.44 0 0 Z " fill="#474747" transform="translate(328,264)"/>
<path d="M0 0 C47.52 0 95.04 0 144 0 C144 5.28 144 10.56 144 16 C96.48 16 48.96 16 0 16 C0 10.72 0 5.44 0 0 Z " fill="#474747" transform="translate(328,232)"/>
<path d="M0 0 C47.52 0 95.04 0 144 0 C144 5.28 144 10.56 144 16 C96.48 16 48.96 16 0 16 C0 10.72 0 5.44 0 0 Z " fill="#474747" transform="translate(328,168)"/>
<path d="M0 0 C47.52 0 95.04 0 144 0 C144 5.28 144 10.56 144 16 C96.48 16 48.96 16 0 16 C0 10.72 0 5.44 0 0 Z " fill="#474747" transform="translate(328,136)"/>
<path d="M0 0 C15.84 0 31.68 0 48 0 C48.061875 5.81625 48.12375 11.6325 48.1875 17.625 C48.22846802 20.36224365 48.22846802 20.36224365 48.27026367 23.15478516 C48.27903313 24.61620422 48.28667598 26.07763067 48.29296875 27.5390625 C48.30831665 28.28567139 48.32366455 29.03228027 48.33947754 29.80151367 C48.34219396 35.2723826 47.31676875 39.46000093 43.5 43.64453125 C37.02373258 48.68724989 31.61433125 48.24528549 23.6875 48.3125 C22.55892578 48.34150391 21.43035156 48.37050781 20.26757812 48.40039062 C13.85842791 48.44943062 9.82873391 48.38757051 5 44 C-0.07535626 38.51312837 -0.14814211 34.20877836 -0.09765625 26.953125 C-0.09664917 26.26911621 -0.09564209 25.58510742 -0.09460449 24.88037109 C-0.0893913 22.33689689 -0.07543006 19.79344668 -0.0625 17.25 C-0.041875 11.5575 -0.02125 5.865 0 0 Z " fill="#B4B4B4" transform="translate(232,368)"/>
<path d="M0 0 C9.60607775 5.75100707 16.49078183 14.34725599 19.25 25.25 C20.76365904 33.66806868 20.1488339 42.48339377 20 51 C14.72 51 9.44 51 4 51 C3.97421875 49.5046875 3.9484375 48.009375 3.921875 46.46875 C3.86556524 44.47913863 3.80821857 42.48955643 3.75 40.5 C3.73582031 39.51773438 3.72164062 38.53546875 3.70703125 37.5234375 C3.4551933 29.96829905 2.04688265 24.54030494 -2.9296875 18.7578125 C-9.49530009 13.24691679 -14.64548912 11.48525583 -23.2578125 11.6953125 C-30.61398594 12.5126651 -34.88098747 16.43520163 -39.5546875 21.90234375 C-42.28922558 25.87111929 -43.24630144 29.5195909 -43.4140625 34.30078125 C-43.45273438 35.27724609 -43.49140625 36.25371094 -43.53125 37.25976562 C-43.57765625 38.77086914 -43.57765625 38.77086914 -43.625 40.3125 C-43.66367188 41.33923828 -43.70234375 42.36597656 -43.7421875 43.42382812 C-43.83614489 45.94893309 -43.91914808 48.47444144 -44 51 C-49.28 51 -54.56 51 -60 51 C-60.96870658 24.3928593 -60.96870658 24.3928593 -55 15 C-54.53078125 14.24976563 -54.0615625 13.49953125 -53.578125 12.7265625 C-41.12216256 -5.28770577 -19.37799318 -10.00494213 0 0 Z " fill="#696969" transform="translate(148,125)"/>
<path d="M0 0 C5.83183705 4.00140645 9.53988305 8.96689512 12.140625 15.46875 C12.140625 22.72875 12.140625 29.98875 12.140625 37.46875 C-3.699375 37.46875 -19.539375 37.46875 -35.859375 37.46875 C-35.859375 11.97680009 -35.859375 11.97680009 -29.67578125 5.0078125 C-28.56009766 4.06035156 -28.56009766 4.06035156 -27.421875 3.09375 C-26.68066406 2.44664062 -25.93945312 1.79953125 -25.17578125 1.1328125 C-17.68122943 -4.25113198 -8.10718954 -4.08275732 0 0 Z " fill="#F1F1F1" transform="translate(139.859375,138.53125)"/>
<path d="M0 0 C13.2 0 26.4 0 40 0 C40 13.2 40 26.4 40 40 C31.46125 40.0928125 31.46125 40.0928125 22.75 40.1875 C20.95916992 40.21481201 19.16833984 40.24212402 17.32324219 40.27026367 C15.89779331 40.27902862 14.47233692 40.28667254 13.046875 40.29296875 C11.94400146 40.3159906 11.94400146 40.3159906 10.81884766 40.33947754 C7.63858295 40.34110123 5.37875255 40.20654063 2.55957031 38.66918945 C-0.75149817 35.12539246 -0.12998328 30.81135189 -0.09765625 26.26953125 C-0.09664917 25.60417358 -0.09564209 24.93881592 -0.09460449 24.2532959 C-0.08938106 21.77301301 -0.07541978 19.29275474 -0.0625 16.8125 C-0.041875 11.264375 -0.02125 5.71625 0 0 Z " fill="#3178E9" transform="translate(264,224)"/>
<path d="M0 0 C13.2 0 26.4 0 40 0 C40 13.2 40 26.4 40 40 C31.46125 40.0928125 31.46125 40.0928125 22.75 40.1875 C20.95916992 40.21481201 19.16833984 40.24212402 17.32324219 40.27026367 C15.89779331 40.27902862 14.47233692 40.28667254 13.046875 40.29296875 C11.94400146 40.3159906 11.94400146 40.3159906 10.81884766 40.33947754 C7.63858295 40.34110123 5.37875255 40.20654063 2.55957031 38.66918945 C-0.75149817 35.12539246 -0.12998328 30.81135189 -0.09765625 26.26953125 C-0.09664917 25.60417358 -0.09564209 24.93881592 -0.09460449 24.2532959 C-0.08938106 21.77301301 -0.07541978 19.29275474 -0.0625 16.8125 C-0.041875 11.264375 -0.02125 5.71625 0 0 Z " fill="#3178E9" transform="translate(264,128)"/>
<path d="M0 0 C0.76978683 0.0028299 1.53957367 0.00565979 2.33268738 0.00857544 C4.777943 0.01972093 7.22282487 0.04481469 9.66796875 0.0703125 C11.3313749 0.0803496 12.99478682 0.08947417 14.65820312 0.09765625 C18.72410112 0.11964177 22.78972169 0.15413236 26.85546875 0.1953125 C26.85546875 0.5253125 26.85546875 0.8553125 26.85546875 1.1953125 C25.37046875 1.47375 25.37046875 1.47375 23.85546875 1.7578125 C17.88758607 3.4559905 13.52510412 7.93322587 9.91796875 12.8203125 C7.88568605 17.36306206 7.69660333 21.87981637 7.5390625 26.80859375 C7.50095459 27.93305908 7.46284668 29.05752441 7.42358398 30.21606445 C7.38048096 31.63234131 7.33737793 33.04861816 7.29296875 34.5078125 C7.14859375 39.0246875 7.00421875 43.5415625 6.85546875 48.1953125 C-3.70453125 48.1953125 -14.26453125 48.1953125 -25.14453125 48.1953125 C-25.22703125 43.2453125 -25.30953125 38.2953125 -25.39453125 33.1953125 C-25.43094727 31.64972656 -25.46736328 30.10414062 -25.50488281 28.51171875 C-25.57504222 19.81195193 -25.160182 13.77778473 -19.1796875 6.953125 C-18.52871094 6.41429687 -17.87773437 5.87546875 -17.20703125 5.3203125 C-16.55863281 4.76601563 -15.91023438 4.21171875 -15.2421875 3.640625 C-10.32670967 0.2537967 -5.84026588 -0.08149301 0 0 Z " fill="#2863BE" transform="translate(41.14453125,15.8046875)"/>
<path d="M0 0 C10.56 0 21.12 0 32 0 C32 10.56 32 21.12 32 32 C21.44 32 10.88 32 0 32 C0 21.44 0 10.88 0 0 Z " fill="#4FB5DC" transform="translate(16,64)"/>
<path d="M0 0 C10.56 0 21.12 0 32 0 C32 10.56 32 21.12 32 32 C28.65875 32.0825 25.3175 32.165 21.875 32.25 C20.83327637 32.28641602 19.79155273 32.32283203 18.71826172 32.36035156 C12.94893426 32.42915293 9.52791721 31.94667903 5 28 C1.39314316 23.90573007 -0.13030581 21.63076421 -0.09765625 16.2109375 C-0.09515869 15.36321777 -0.09266113 14.51549805 -0.09008789 13.64208984 C-0.08098389 12.5639502 -0.07187988 11.48581055 -0.0625 10.375 C-0.041875 6.95125 -0.02125 3.5275 0 0 Z " fill="#CBCBCB" transform="translate(248,368)"/>
<path d="M0 0 C15.84 0 31.68 0 48 0 C48 5.28 48 10.56 48 16 C32.16 16 16.32 16 0 16 C0 10.72 0 5.44 0 0 Z " fill="#474747" transform="translate(424,48)"/>
</svg>
